<svg width="58" height="51" viewBox="0 0 58 51" fill="none" xmlns="http://www.w3.org/2000/svg">
<path d="M3.64645 50.3536C3.84171 50.5488 4.15829 50.5488 4.35355 50.3536L7.53553 47.1716C7.7308 46.9763 7.7308 46.6597 7.53553 46.4645C7.34027 46.2692 7.02369 46.2692 6.82843 46.4645L4 49.2929L1.17157 46.4645C0.976311 46.2692 0.659728 46.2692 0.464466 46.4645C0.269204 46.6597 0.269204 46.9763 0.464466 47.1716L3.64645 50.3536ZM3.5 0L3.5 50H4.5L4.5 0L3.5 0Z" fill="black"/>
<path d="M28.0908 50.3536C28.286 50.5488 28.6026 50.5488 28.7979 50.3536L31.9799 47.1716C32.1751 46.9763 32.1751 46.6597 31.9799 46.4645C31.7846 46.2692 31.468 46.2692 31.2728 46.4645L28.4443 49.2929L25.6159 46.4645C25.4206 46.2692 25.1041 46.2692 24.9088 46.4645C24.7135 46.6597 24.7135 46.9763 24.9088 47.1716L28.0908 50.3536ZM27.9443 0L27.9443 50H28.9443L28.9443 0L27.9443 0Z" fill="black"/>
<path d="M53.6464 50.3536C53.8417 50.5488 54.1583 50.5488 54.3536 50.3536L57.5355 47.1716C57.7308 46.9763 57.7308 46.6597 57.5355 46.4645C57.3403 46.2692 57.0237 46.2692 56.8284 46.4645L54 49.2929L51.1716 46.4645C50.9763 46.2692 50.6597 46.2692 50.4645 46.4645C50.2692 46.6597 50.2692 46.9763 50.4645 47.1716L53.6464 50.3536ZM53.5 0V50H54.5V0L53.5 0Z" fill="black"/>
</svg>
