<svg width="52" height="52" viewBox="0 0 52 52" fill="none" xmlns="http://www.w3.org/2000/svg">
<path d="M29.3369 39C28.3114 39.0012 27.3168 38.6492 26.5203 38.0033L15.4703 28.8816C15.037 28.5367 14.687 28.0984 14.4465 27.5995C14.206 27.1006 14.0811 26.5538 14.0811 26C14.0811 25.4461 14.206 24.8994 14.4465 24.4004C14.687 23.9015 15.037 23.4633 15.4703 23.1183L26.5203 13.9966C27.1855 13.4636 27.9871 13.1282 28.8337 13.0286C29.6803 12.929 30.5378 13.0692 31.3086 13.4333C31.9785 13.7286 32.5492 14.2104 32.9526 14.8213C33.356 15.4322 33.5751 16.1463 33.5836 16.8783V35.1216C33.5751 35.8536 33.356 36.5677 32.9526 37.1786C32.5492 37.7895 31.9785 38.2714 31.3086 38.5666C30.6892 38.8483 30.0173 38.996 29.3369 39Z" fill="#5790FF"/>
</svg>
