<svg width="150" height="150" viewBox="0 0 150 150" fill="none" xmlns="http://www.w3.org/2000/svg">
<g clip-path="url(#clip0)">
<rect width="150" height="150" fill="black"/>
<path d="M26.57 126V50.165H42.52V126H26.57ZM26.57 37.695V20.15H42.52V37.695H26.57ZM81.8422 127.45C78.1689 127.45 74.7372 126.87 71.5472 125.71C68.4539 124.453 65.7472 122.762 63.4272 120.635C61.2039 118.508 59.4155 115.995 58.0622 113.095C56.8055 110.195 56.1772 107.053 56.1772 103.67C56.1772 100.093 56.9505 96.855 58.4972 93.955C60.0439 91.055 62.2189 88.5417 65.0222 86.415C67.9222 84.2883 71.3055 82.645 75.1722 81.485C79.1355 80.325 83.4855 79.745 88.2222 79.745C91.7989 79.745 95.3272 80.0833 98.8072 80.76C102.287 81.34 105.429 82.1617 108.232 83.225V78.005C108.232 72.3983 106.637 68.0483 103.447 64.955C100.257 61.765 95.6655 60.17 89.6722 60.17C85.6122 60.17 81.6005 60.9433 77.6372 62.49C73.7705 63.94 69.7589 66.0667 65.6022 68.87L60.6722 58.72C70.4355 52.1467 80.5855 48.86 91.1222 48.86C101.562 48.86 109.682 51.5183 115.482 56.835C121.282 62.1517 124.182 69.7883 124.182 79.745V107.15C124.182 110.533 125.584 112.273 128.387 112.37V126C126.841 126.29 125.487 126.483 124.327 126.58C123.264 126.677 122.201 126.725 121.137 126.725C118.044 126.725 115.627 125.952 113.887 124.405C112.244 122.858 111.229 120.877 110.842 118.46L110.407 113.675C107.024 118.122 102.819 121.553 97.7922 123.97C92.8622 126.29 87.5455 127.45 81.8422 127.45ZM86.1922 115.705C90.0589 115.705 93.6839 115.028 97.0672 113.675C100.547 112.225 103.254 110.243 105.187 107.73C107.217 105.99 108.232 104.153 108.232 102.22V92.215C105.526 91.1517 102.626 90.33 99.5322 89.75C96.5355 89.17 93.5872 88.88 90.6872 88.88C84.9839 88.88 80.2955 90.1367 76.6222 92.65C73.0455 95.0667 71.2572 98.305 71.2572 102.365C71.2572 106.135 72.6589 109.325 75.4622 111.935C78.2655 114.448 81.8422 115.705 86.1922 115.705Z" fill="white"/>
</g>
<defs>
<clipPath id="clip0">
<rect width="150" height="150" fill="white"/>
</clipPath>
</defs>
</svg>
